<svg width="56" height="56" viewBox="0 0 56 56" fill="none" xmlns="http://www.w3.org/2000/svg">
<path fill-rule="evenodd" clip-rule="evenodd" d="M27.8125 1C13.0044 1 1 13.0044 1 27.8125C1 42.6206 13.0044 54.625 27.8125 54.625C42.6206 54.625 54.625 42.6206 54.625 27.8125C54.625 13.0044 42.6206 1 27.8125 1ZM39.5834 29.2709C39.9702 28.8841 40.1875 28.3595 40.1875 27.8125C40.1875 27.2655 39.9702 26.7409 39.5834 26.3541L31.3334 18.1041C30.528 17.2986 29.2221 17.2986 28.4166 18.1041C27.6111 18.9095 27.6111 20.2154 28.4166 21.0209L33.1457 25.75L17.5 25.75C16.3609 25.75 15.4375 26.6734 15.4375 27.8125C15.4375 28.9516 16.3609 29.875 17.5 29.875L33.1457 29.875L28.4166 34.6041C27.6111 35.4095 27.6111 36.7154 28.4166 37.5209C29.222 38.3264 30.5279 38.3264 31.3334 37.5209L39.5834 29.2709Z" fill="#944131" stroke="#E9E2D5" stroke-width="2"/>
</svg>
