<svg width="57" height="57" viewBox="0 0 57 57" fill="none" xmlns="http://www.w3.org/2000/svg">
<path fill-rule="evenodd" clip-rule="evenodd" d="M1 28.2188C1 13.1862 13.1862 1 28.2188 1C43.2512 1 55.4375 13.1862 55.4375 28.2188C55.4375 43.2512 43.2512 55.4375 28.2188 55.4375C13.1862 55.4375 1 43.2512 1 28.2188ZM38.2975 23.1545C38.9696 22.2135 38.7517 20.9059 37.8107 20.2337C36.8698 19.5616 35.5621 19.7796 34.89 20.7205L25.8578 33.3656L21.3243 28.832C20.5066 28.0143 19.1809 28.0143 18.3632 28.832C17.5456 29.6497 17.5456 30.9753 18.3632 31.793L24.6445 38.0743C25.0797 38.5095 25.6843 38.7311 26.2977 38.6804C26.9111 38.6296 27.471 38.3115 27.8288 37.8107L38.2975 23.1545Z" fill="#944131" stroke="#E9E2D5" stroke-width="2"/>
</svg>
