<svg width="71" height="71" viewBox="0 0 71 71" fill="none" xmlns="http://www.w3.org/2000/svg">
<path fill-rule="evenodd" clip-rule="evenodd" d="M35.125 1C16.2783 1 1 16.2783 1 35.125C1 53.9717 16.2783 69.25 35.125 69.25C53.9717 69.25 69.25 53.9717 69.25 35.125C69.25 16.2783 53.9717 1 35.125 1ZM37.75 24.625C37.75 23.1753 36.5747 22 35.125 22C33.6753 22 32.5 23.1753 32.5 24.625V32.5H24.625C23.1753 32.5 22 33.6753 22 35.125C22 36.5747 23.1753 37.75 24.625 37.75H32.5V45.625C32.5 47.0747 33.6753 48.25 35.125 48.25C36.5747 48.25 37.75 47.0747 37.75 45.625V37.75H45.625C47.0747 37.75 48.25 36.5747 48.25 35.125C48.25 33.6753 47.0747 32.5 45.625 32.5H37.75V24.625Z" fill="#944131" stroke="#E9E2D5" stroke-width="2"/>
</svg>
