<svg width="69" height="69" viewBox="0 0 69 69" fill="none" xmlns="http://www.w3.org/2000/svg">
<path fill-rule="evenodd" clip-rule="evenodd" d="M34.125 0C15.2783 0 0 15.2783 0 34.125C0 52.9717 15.2783 68.25 34.125 68.25C52.9717 68.25 68.25 52.9717 68.25 34.125C68.25 15.2783 52.9717 0 34.125 0ZM36.75 23.625C36.75 22.1753 35.5747 21 34.125 21C32.6753 21 31.5 22.1753 31.5 23.625V31.5H23.625C22.1753 31.5 21 32.6753 21 34.125C21 35.5747 22.1753 36.75 23.625 36.75H31.5V44.625C31.5 46.0747 32.6753 47.25 34.125 47.25C35.5747 47.25 36.75 46.0747 36.75 44.625V36.75H44.625C46.0747 36.75 47.25 35.5747 47.25 34.125C47.25 32.6753 46.0747 31.5 44.625 31.5H36.75V23.625Z" fill="#E9E2D5"/>
</svg>
