<svg width="17" height="17" viewBox="0 0 17 17" fill="none" xmlns="http://www.w3.org/2000/svg">
<path fill-rule="evenodd" clip-rule="evenodd" d="M8.5 0C3.80558 0 0 3.80558 0 8.5C0 13.1944 3.80558 17 8.5 17C13.1944 17 17 13.1944 17 8.5C17 3.80558 13.1944 0 8.5 0ZM12.2316 8.96234C12.3542 8.83972 12.4231 8.67341 12.4231 8.5C12.4231 8.32659 12.3542 8.16028 12.2316 8.03766L9.61619 5.42228C9.36084 5.16693 8.94685 5.16693 8.69151 5.42228C8.43616 5.67762 8.43616 6.09161 8.69151 6.34695L10.1907 7.84615L5.23077 7.84615C4.86966 7.84615 4.57692 8.13889 4.57692 8.5C4.57692 8.86111 4.86966 9.15384 5.23077 9.15384L10.1907 9.15385L8.69151 10.653C8.43616 10.9084 8.43616 11.3224 8.69151 11.5777C8.94685 11.8331 9.36084 11.8331 9.61618 11.5777L12.2316 8.96234Z" fill="#944131"/>
</svg>
