<svg width="14" height="15" viewBox="0 0 14 15" fill="none" xmlns="http://www.w3.org/2000/svg">
<path d="M11.2253 7.6673V11.5174C11.2253 12.622 10.3298 13.5174 9.22526 13.5174H2.5C1.39543 13.5174 0.5 12.622 0.5 11.5174V5.11718C0.5 4.01261 1.39543 3.11719 2.5 3.11719H5.70013" stroke="#E9E2D5" stroke-linecap="round"/>
<path d="M5.14651 8.14248C4.95121 8.3377 4.95116 8.65428 5.14638 8.84958C5.34161 9.04488 5.65819 9.04494 5.85349 8.84971L5.5 8.49609L5.14651 8.14248ZM14 0.499104C14.0001 0.222961 13.7762 -0.000937197 13.5001 -0.000987893L9.0001 -0.00181157C8.72396 -0.00186231 8.50006 0.221954 8.50001 0.498097C8.49996 0.774239 8.72378 0.998138 8.99992 0.998188L12.9999 0.998921L12.9992 4.99892C12.9991 5.27506 13.223 5.49896 13.4991 5.49901C13.7752 5.49906 13.9991 5.27525 13.9992 4.9991L14 0.499104ZM5.5 8.49609L5.85349 8.84971L13.8535 0.85263L13.5 0.499012L13.1465 0.145394L5.14651 8.14248L5.5 8.49609Z" fill="#E9E2D5"/>
</svg>
