<svg width="27" height="27" viewBox="0 0 27 27" fill="none" xmlns="http://www.w3.org/2000/svg">
<path fill-rule="evenodd" clip-rule="evenodd" d="M19.5792 24.3576C25.8215 20.7536 27.9602 12.7717 24.3562 6.52939C20.7523 0.287107 12.7703 -1.85166 6.52802 1.75233C0.285738 5.35631 -1.85302 13.3383 1.75096 19.5806C5.35494 25.8228 13.3369 27.9616 19.5792 24.3576ZM18.3705 10.805C18.4394 10.5478 18.4033 10.2738 18.2702 10.0432C18.1371 9.81257 17.9178 9.64432 17.6606 9.5754L12.175 8.10554C11.6394 7.96203 11.0889 8.27986 10.9454 8.81543C10.8019 9.35099 11.1198 9.90149 11.6553 10.045L14.7998 10.8876L8.20446 14.6954C7.72429 14.9726 7.55977 15.5866 7.837 16.0668C8.11423 16.547 8.72822 16.7115 9.2084 16.4342L15.8037 12.6264L14.9612 15.7709C14.8177 16.3065 15.1355 16.857 15.6711 17.0005C16.2066 17.144 16.7571 16.8261 16.9006 16.2906L18.3705 10.805Z" fill="#E9E2D5"/>
</svg>
