<svg width="21" height="21" viewBox="0 0 21 21" fill="none" xmlns="http://www.w3.org/2000/svg">
<path d="M7.3556 2.91837C7.09638 2.29821 6.42044 1.97009 5.77732 2.14399L5.59685 2.19321C3.47716 2.77071 1.66591 4.82477 2.19419 7.32509C3.41154 13.0673 7.92982 17.5856 13.672 18.8029C16.1756 19.3345 18.2264 17.5199 18.8039 15.4002L18.8531 15.2198C19.0303 14.5734 18.6989 13.8974 18.082 13.6415L14.8893 12.3126C14.3479 12.0862 13.7212 12.2437 13.3472 12.6998L12.0806 14.2485C9.77388 13.1034 7.91669 11.1871 6.85029 8.83446L8.3006 7.65321C8.75669 7.28243 8.91091 6.65571 8.68778 6.11102L7.3556 2.91837Z" fill="#944131"/>
</svg>
