<svg width="17" height="17" viewBox="0 0 17 17" fill="none" xmlns="http://www.w3.org/2000/svg">
<path d="M11.3969 0.145312C11.5906 -0.0484375 11.9094 -0.0484375 12.1031 0.145312L12.4813 0.523438C13.4563 1.49844 13.4563 3.08281 12.4813 4.05781C13.4563 3.08281 15.0406 3.08281 16.0156 4.05781L16.3938 4.43594C16.5875 4.62969 16.5875 4.94844 16.3938 5.14219L16.0156 5.52031C15.0406 6.49531 13.4563 6.49531 12.4813 5.52031C11.9938 5.03281 11.5063 4.54531 11.0156 4.05469C10.0406 3.07969 10.0406 1.49531 11.0156 0.520312L11.3938 0.142188L11.3969 0.145312ZM0 11.0422C0 5.54219 3.00625 2.54219 6.00625 2.54219C7.02813 2.54531 8.04688 2.93594 8.82813 3.71406L12.8281 7.71406C13.6094 8.49531 14 9.52031 14 10.5422C14 13.5422 11 16.5422 5.5 16.5422C1.5 16.5422 0 15.0422 0 11.0422ZM5.4 5.94219C5.77187 5.57031 5.85625 5.05781 5.67188 4.87031C5.4875 4.68281 4.97188 4.77031 4.6 5.14219C4.22813 5.51406 4.14375 6.02656 4.32813 6.21406C4.5125 6.40156 5.02813 6.31406 5.4 5.94219ZM7.67188 6.87031C7.4875 6.68594 6.97188 6.77031 6.6 7.14219C6.22813 7.51406 6.14375 8.02656 6.32813 8.21406C6.5125 8.40156 7.02813 8.31406 7.4 7.94219C7.77188 7.57031 7.85625 7.05781 7.67188 6.87031ZM6.67188 9.87031C6.4875 9.68594 5.97188 9.77031 5.6 10.1422C5.22813 10.5141 5.14375 11.0266 5.32813 11.2141C5.5125 11.4016 6.02813 11.3141 6.4 10.9422C6.77188 10.5703 6.85625 10.0578 6.67188 9.87031ZM5.67188 12.8703C5.4875 12.6859 4.97188 12.7703 4.6 13.1422C4.22813 13.5141 4.14375 14.0266 4.32813 14.2141C4.5125 14.4016 5.02813 14.3141 5.4 13.9422C5.77187 13.5703 5.85625 13.0578 5.67188 12.8703ZM8.4 12.9422C8.77188 12.5703 8.85625 12.0578 8.67188 11.8703C8.4875 11.6828 7.97188 11.7703 7.6 12.1422C7.22813 12.5141 7.14375 13.0266 7.32813 13.2141C7.5125 13.4016 8.02813 13.3141 8.4 12.9422ZM9.4 9.94219C9.77188 9.57031 9.85625 9.05781 9.67188 8.87031C9.4875 8.68281 8.97188 8.77031 8.6 9.14219C8.22813 9.51406 8.14375 10.0266 8.32813 10.2141C8.5125 10.4016 9.02813 10.3141 9.4 9.94219ZM11.6719 10.8703C11.4875 10.6859 10.9719 10.7703 10.6 11.1422C10.2281 11.5141 10.1438 12.0266 10.3281 12.2141C10.5125 12.4016 11.0281 12.3141 11.4 11.9422C11.7719 11.5703 11.8563 11.0578 11.6719 10.8703ZM4.67188 7.87031C4.4875 7.68594 3.97188 7.77031 3.6 8.14219C3.22813 8.51406 3.14375 9.02656 3.32812 9.21406C3.5125 9.40156 4.02812 9.31406 4.4 8.94219C4.77187 8.57031 4.85625 8.05781 4.67188 7.87031ZM3.4 11.9422C3.77188 11.5703 3.85625 11.0578 3.67188 10.8703C3.4875 10.6828 2.97188 10.7703 2.6 11.1422C2.22813 11.5141 2.14375 12.0266 2.32812 12.2141C2.5125 12.4016 3.02813 12.3141 3.4 11.9422Z" fill="#E9E2D5"/>
</svg>
