<svg width="15" height="15" viewBox="0 0 15 15" fill="none" xmlns="http://www.w3.org/2000/svg">
<path d="M10.0322 0.130781C10.2066 -0.0435938 10.4934 -0.0435938 10.6678 0.130781L11.0081 0.471094C11.8856 1.34859 11.8856 2.77453 11.0081 3.65203C11.8856 2.77453 13.3116 2.77453 14.1891 3.65203L14.5294 3.99234C14.7037 4.16672 14.7037 4.45359 14.5294 4.62797L14.1891 4.96828C13.3116 5.84578 11.8856 5.84578 11.0081 4.96828C10.5694 4.52953 10.1306 4.09078 9.68906 3.64922C8.81156 2.77172 8.81156 1.34578 9.68906 0.468281L10.0322 0.130781ZM5.4 4.53797C5.4 3.66891 6.10594 2.96297 6.975 2.96297C7.84406 2.96297 8.55 3.66891 8.55 4.53797C8.55 5.40703 7.84406 6.11297 6.975 6.11297C6.10594 6.11297 5.4 5.40703 5.4 4.53797ZM3.15 3.63797C4.01906 3.63797 4.725 4.34391 4.725 5.21297C4.725 6.08203 4.01906 6.78797 3.15 6.78797C2.28094 6.78797 1.575 6.08203 1.575 5.21297C1.575 4.34391 2.28094 3.63797 3.15 3.63797ZM0.9 9.03797C0.9 8.16891 1.60594 7.46297 2.475 7.46297C3.34406 7.46297 4.05 8.16891 4.05 9.03797C4.05 9.90703 3.34406 10.613 2.475 10.613C1.60594 10.613 0.9 9.90703 0.9 9.03797ZM0 13.088C0 12.2189 0.705938 11.513 1.575 11.513C2.44406 11.513 3.15 12.2189 3.15 13.088C3.15 13.957 2.44406 14.663 1.575 14.663C0.705938 14.663 0 13.957 0 13.088ZM4.05 12.188C4.05 11.3189 4.75594 10.613 5.625 10.613C6.49406 10.613 7.2 11.3189 7.2 12.188C7.2 13.057 6.49406 13.763 5.625 13.763C4.75594 13.763 4.05 13.057 4.05 12.188ZM9.45 9.93797C10.3191 9.93797 11.025 10.6439 11.025 11.513C11.025 12.382 10.3191 13.088 9.45 13.088C8.58094 13.088 7.875 12.382 7.875 11.513C7.875 10.6439 8.58094 9.93797 9.45 9.93797ZM4.725 8.36297C4.725 7.49391 5.43094 6.78797 6.3 6.78797C7.16906 6.78797 7.875 7.49391 7.875 8.36297C7.875 9.23203 7.16906 9.93797 6.3 9.93797C5.43094 9.93797 4.725 9.23203 4.725 8.36297ZM10.125 6.11297C10.9941 6.11297 11.7 6.81891 11.7 7.68797C11.7 8.55703 10.9941 9.26297 10.125 9.26297C9.25594 9.26297 8.55 8.55703 8.55 7.68797C8.55 6.81891 9.25594 6.11297 10.125 6.11297Z" fill="#E9E2D5"/>
</svg>
