<svg width="16" height="17" viewBox="0 0 16 17" fill="none" xmlns="http://www.w3.org/2000/svg">
<path d="M7.6 0C7.99484 0 8.3125 0.317656 8.3125 0.7125V2.57984C8.74 2.15828 9.32781 1.9 9.975 1.9H10.925C11.1862 1.9 11.4 2.11375 11.4 2.375C11.4 3.31609 10.8537 4.12656 10.0611 4.5125C10.8537 4.89844 11.4 5.70891 11.4 6.65C11.4 6.91125 11.1862 7.125 10.925 7.125H9.5C8.72219 7.125 8.03344 6.75094 7.6 6.175C7.16656 6.75094 6.47781 7.125 5.7 7.125H4.275C4.01375 7.125 3.8 6.91125 3.8 6.65C3.8 5.70891 4.34625 4.89844 5.13891 4.5125C4.34625 4.12656 3.8 3.31609 3.8 2.375C3.8 2.11375 4.01375 1.9 4.275 1.9H5.225C5.87219 1.9 6.46 2.15828 6.8875 2.57984V0.7125C6.8875 0.317656 7.20516 0 7.6 0ZM2.375 6.65C2.375 7.69797 3.22703 8.55 4.275 8.55H5.7C6.39172 8.55 7.04187 8.36297 7.6 8.04234C8.15812 8.36594 8.80828 8.55 9.5 8.55H10.925C11.973 8.55 12.825 7.69797 12.825 6.65C12.825 6.09484 12.7062 5.56938 12.4925 5.09438C14.1491 6.14828 15.2 7.81672 15.2 9.975C15.2 13.8611 11.7978 16.15 7.6 16.15C3.40219 16.15 0 13.8611 0 9.975C0 7.81375 1.05094 6.14828 2.7075 5.09438C2.49375 5.56938 2.375 6.09484 2.375 6.65Z" fill="#E9E2D5"/>
</svg>
