<svg width="15" height="17" viewBox="0 0 15 17" fill="none" xmlns="http://www.w3.org/2000/svg">
<path d="M7.35587 3.67228C7.06689 3.67228 6.83045 3.4362 6.83045 3.14767V2.62306C6.83045 1.17382 8.00608 0 9.45755 0H9.98297C10.2719 0 10.5084 0.236075 10.5084 0.524611V1.04922C10.5084 2.49846 9.33276 3.67228 7.88129 3.67228H7.35587ZM0 9.443C0 6.94126 1.17234 4.19689 3.67794 4.19689C4.57443 4.19689 5.63841 4.53461 6.3937 4.8297C7.01107 5.06906 7.70396 5.06906 8.32133 4.8297C9.07334 4.53789 10.1406 4.19689 11.0371 4.19689C13.5427 4.19689 14.715 6.94126 14.715 9.443C14.715 13.6399 12.0879 16.7876 9.46083 16.7876C8.91899 16.7876 8.20968 16.5712 7.76964 16.4171C7.50365 16.3253 7.21467 16.3253 6.94867 16.4171C6.50863 16.5712 5.79932 16.7876 5.25748 16.7876C2.63038 16.7876 0.00328382 13.6399 0.00328382 9.443H0Z" fill="#E9E2D5"/>
</svg>
