<svg width="11" height="20" viewBox="0 0 11 20" fill="none" xmlns="http://www.w3.org/2000/svg">
<path d="M6.45652 11.4563L6.69565 18.6855C7.26957 18.8606 8.05072 19.6348 8.36957 20H2.86957C2.86957 19.4742 3.82609 18.9046 4.30435 18.6855L4.78261 11.4563C4.4 11.2809 4.14493 10.9452 4.06522 10.7992C2.53478 11.6755 1.99275 10.5802 1.91304 9.92299C0 8.69634 1.27536 7.95144 2.15217 7.73233C1.76957 7.03132 2.31159 6.71002 2.63043 6.637C1.2913 6.46175 1.27536 5.54167 1.43478 5.10354C0.956522 5.10354 0 4.84066 0 3.78915C0 2.73763 1.11594 2.47476 1.67391 2.47476C1.86522 1.07274 3.18841 1.01467 3.82609 1.16089C5.35652 -0.941596 6.69565 0.284856 7.17391 1.16089C8.70435 0.459883 9.24638 1.74507 9.32609 2.47529C10.0435 2.47529 11 2.91342 11 3.78968C11 4.49069 10.0435 4.95803 9.56522 5.10407C9.56522 5.80508 8.76812 6.41847 8.36957 6.63753C8.94348 6.98804 8.92754 7.51334 8.84783 7.73218C9.08696 7.51312 10.5217 7.73218 10.2826 8.82751C10.0913 9.70377 9.4058 9.92284 9.08696 9.92284C8.70435 11.6754 7.49275 11.2372 6.93478 10.7991C6.93478 10.9744 6.61594 11.3103 6.45652 11.4563Z" fill="#E9E2D5"/>
</svg>
