<svg width="54" height="54" viewBox="0 0 54 54" fill="none" xmlns="http://www.w3.org/2000/svg">
<circle cx="27" cy="27" r="27" fill="#E9E2D5"/>
<path d="M16.8083 15.8086C15.0401 15.8086 13.6025 17.2462 13.6025 19.0143V33.44C13.6025 35.2082 15.0401 36.6457 16.8083 36.6457H16.9735C17.4945 38.494 19.1975 39.8515 21.2161 39.8515C23.2347 39.8515 24.9327 38.494 25.4587 36.6457H30.5978C31.1188 38.494 32.8218 39.8515 34.8404 39.8515C36.859 39.8515 38.557 38.494 39.083 36.6457H39.2483C41.0164 36.6457 42.454 35.2082 42.454 33.44V26.0919C42.454 25.2404 42.1184 24.424 41.5173 23.8229L39.2483 21.5538C38.6472 20.9528 37.8307 20.6172 36.9792 20.6172H34.4397V19.0143C34.4397 17.2462 33.0021 15.8086 31.234 15.8086H16.8083ZM39.2483 26.0919V28.6315H34.4397V23.8229H36.9792L39.2483 26.0919ZM21.2161 33.44C22.3231 33.44 23.2197 34.3366 23.2197 35.4436C23.2197 36.5506 22.3231 37.4472 21.2161 37.4472C20.1091 37.4472 19.2125 36.5506 19.2125 35.4436C19.2125 34.3366 20.1091 33.44 21.2161 33.44ZM32.8368 35.4436C32.8368 34.3366 33.7334 33.44 34.8404 33.44C35.9474 33.44 36.844 34.3366 36.844 35.4436C36.844 36.5506 35.9474 37.4472 34.8404 37.4472C33.7334 37.4472 32.8368 36.5506 32.8368 35.4436ZM28.8798 25.4758L25.2733 29.0823C24.8025 29.5531 24.0411 29.5531 23.5753 29.0823C23.1095 28.6114 23.1045 27.8501 23.5753 27.3842L25.1281 25.8315H20.014C19.3478 25.8315 18.8118 25.2955 18.8118 24.6293C18.8118 23.9631 19.3478 23.4272 20.014 23.4272H25.1281L23.5753 21.8744C23.1045 21.4036 23.1045 20.6422 23.5753 20.1764C24.0462 19.7105 24.8075 19.7055 25.2733 20.1764L28.8798 23.7828C29.3506 24.2536 29.3506 25.015 28.8798 25.4808V25.4758Z" fill="#944131"/>
</svg>
