<svg width="79" height="74" viewBox="0 0 79 74" fill="none" xmlns="http://www.w3.org/2000/svg">
<path d="M13.9626 0C12.0978 0 10.3093 0.740789 8.99072 2.05941L4.11881 6.93131C-1.37294 12.4231 -1.37294 21.3269 4.11881 26.8187C9.13315 31.833 16.9922 32.2689 22.5011 28.1264C24.8501 29.8899 27.7724 30.9375 30.9375 30.9375C34.103 30.9375 37.0258 29.8895 39.375 28.1256C41.7242 29.8895 44.6469 30.9375 47.8125 30.9375C50.9776 30.9375 53.8999 29.8899 56.2489 28.1264C61.7579 32.2689 69.6168 31.833 74.6312 26.8187C80.1229 21.3269 80.1229 12.4231 74.6312 6.93131L69.7593 2.05942C68.4407 0.740806 66.6523 1.67638e-05 64.7875 1.60933e-05L13.9626 0Z" fill="#944131"/>
<path fill-rule="evenodd" clip-rule="evenodd" d="M5.625 67.5V34.6691C10.9508 37.1946 17.1746 37.1928 22.5016 34.6664C25.0599 35.881 27.9229 36.5625 30.9375 36.5625C33.9527 36.5625 36.8163 35.8807 39.375 34.6656C41.9337 35.8807 44.7973 36.5625 47.8125 36.5625C50.8271 36.5625 53.6901 35.881 56.2484 34.6664C61.5754 37.1928 67.7992 37.1946 73.125 34.6691V67.5H75.9375C77.4908 67.5 78.75 68.7592 78.75 70.3125C78.75 71.8658 77.4908 73.125 75.9375 73.125H2.8125C1.2592 73.125 0 71.8658 0 70.3125C0 68.7592 1.2592 67.5 2.8125 67.5H5.625ZM16.875 45C16.875 43.4467 18.1342 42.1875 19.6875 42.1875H30.9375C32.4908 42.1875 33.75 43.4467 33.75 45V56.25C33.75 57.8033 32.4908 59.0625 30.9375 59.0625H19.6875C18.1342 59.0625 16.875 57.8033 16.875 56.25V45ZM47.8125 42.1875C46.2592 42.1875 45 43.4467 45 45V64.6875C45 66.2408 46.2592 67.5 47.8125 67.5H59.0625C60.6158 67.5 61.875 66.2408 61.875 64.6875V45C61.875 43.4467 60.6158 42.1875 59.0625 42.1875H47.8125Z" fill="#944131"/>
</svg>
