<svg width="88" height="73" viewBox="0 0 88 73" fill="none" xmlns="http://www.w3.org/2000/svg">
<path d="M9.7 0C4.34984 0 0 4.34984 0 9.7V53.35C0 58.7002 4.34984 63.05 9.7 63.05H10.2002C11.7764 68.6427 16.9295 72.75 23.0375 72.75C29.1455 72.75 34.2834 68.6427 35.8748 63.05H51.4252C53.0014 68.6427 58.1545 72.75 64.2625 72.75C70.3705 72.75 75.5084 68.6427 77.0999 63.05H77.6C82.9502 63.05 87.3 58.7002 87.3 53.35V31.1158C87.3 28.5392 86.2845 26.0688 84.4658 24.25L77.6 17.3842C75.7813 15.5655 73.3108 14.55 70.7342 14.55H63.05V9.7C63.05 4.34984 58.7002 0 53.35 0H9.7ZM77.6 31.1158V38.8H63.05V24.25H70.7342L77.6 31.1158ZM23.0375 53.35C26.387 53.35 29.1 56.063 29.1 59.4125C29.1 62.762 26.387 65.475 23.0375 65.475C19.688 65.475 16.975 62.762 16.975 59.4125C16.975 56.063 19.688 53.35 23.0375 53.35ZM58.2 59.4125C58.2 56.063 60.913 53.35 64.2625 53.35C67.612 53.35 70.325 56.063 70.325 59.4125C70.325 62.762 67.612 65.475 64.2625 65.475C60.913 65.475 58.2 62.762 58.2 59.4125ZM46.2266 29.2516L35.3141 40.1641C33.8894 41.5887 31.5856 41.5887 30.1761 40.1641C28.7666 38.7394 28.7514 36.4356 30.1761 35.0261L34.8745 30.3277H19.4C17.3842 30.3277 15.7625 28.7059 15.7625 26.6902C15.7625 24.6744 17.3842 23.0527 19.4 23.0527H34.8745L30.1761 18.3542C28.7514 16.9295 28.7514 14.6258 30.1761 13.2162C31.6008 11.8067 33.9045 11.7916 35.3141 13.2162L46.2266 24.1287C47.6513 25.5534 47.6513 27.8572 46.2266 29.2667V29.2516Z" fill="#944131"/>
</svg>
