<svg width="82" height="73" viewBox="0 0 82 73" fill="none" xmlns="http://www.w3.org/2000/svg">
<path d="M0 19.8316V67.8768C0 70.3935 2.03328 72.4268 4.55 72.4268C7.06672 72.4268 9.1 70.3935 9.1 67.8768V33.7518C9.1 31.235 11.1333 29.2018 13.65 29.2018H68.25C70.7667 29.2018 72.8 31.235 72.8 33.7518V67.8768C72.8 70.3935 74.8333 72.4268 77.35 72.4268C79.8667 72.4268 81.9 70.3935 81.9 67.8768V19.8316C81.9 15.9214 79.3975 12.4379 75.6722 11.2008L43.1113 0.351914C41.7036 -0.117305 40.1964 -0.117305 38.7888 0.351914L6.22781 11.2008C2.5025 12.4379 0 15.9214 0 19.8316ZM65.975 36.0268H15.925V45.1268H65.975V36.0268ZM15.925 58.7768H65.975V49.6768H15.925V58.7768ZM65.975 63.3268H15.925V72.4268H65.975V63.3268Z" fill="#944131"/>
</svg>
