<svg width="43" height="35" viewBox="0 0 43 35" fill="none" xmlns="http://www.w3.org/2000/svg">
<rect width="43" height="35" rx="17.5" fill="#944131"/>
<path d="M22.6304 19.7476L22.913 28.4226C23.5913 28.6327 24.5145 29.5618 24.8913 30H18.3913C18.3913 29.3691 19.5217 28.6855 20.087 28.4226L20.6522 19.7476C20.2 19.5371 19.8986 19.1342 19.8043 18.9591C17.9957 20.0106 17.3551 18.6962 17.2609 17.9076C15 16.4356 16.5072 15.5417 17.5435 15.2788C17.0913 14.4376 17.7319 14.052 18.1087 13.9644C16.5261 13.7541 16.5072 12.65 16.6957 12.1243C16.1304 12.1243 15 11.8088 15 10.547C15 9.28516 16.3188 8.96971 16.9783 8.96971C17.2043 7.28728 18.7681 7.21761 19.5217 7.39307C21.3304 4.87008 22.913 6.34183 23.4783 7.39307C25.287 6.55186 25.9275 8.09408 26.0217 8.97034C26.8696 8.97034 28 9.4961 28 10.5476C28 11.3888 26.8696 11.9496 26.3043 12.1249C26.3043 12.9661 25.3623 13.7022 24.8913 13.965C25.5696 14.3856 25.5507 15.016 25.4565 15.2786C25.7391 15.0157 27.4348 15.2786 27.1522 16.593C26.9261 17.6445 26.1159 17.9074 25.7391 17.9074C25.287 20.0104 23.8551 19.4847 23.1957 18.9589C23.1957 19.1692 22.8188 19.5723 22.6304 19.7476Z" fill="#E9E2D5"/>
</svg>
