<svg width="43" height="35" viewBox="0 0 43 35" fill="none" xmlns="http://www.w3.org/2000/svg">
<rect width="43" height="35" rx="17.5" fill="#944131"/>
<path d="M24.8175 8.94555C25.0209 8.74211 25.3556 8.74211 25.5591 8.94555L25.9561 9.34258C26.9798 10.3663 26.9798 12.0299 25.9561 13.0537C26.9798 12.0299 28.6434 12.0299 29.6672 13.0537L30.0642 13.4507C30.2677 13.6541 30.2677 13.9888 30.0642 14.1923L29.6672 14.5893C28.6434 15.613 26.9798 15.613 25.9561 14.5893C25.4442 14.0774 24.9323 13.5655 24.4172 13.0504C23.3934 12.0266 23.3934 10.363 24.4172 9.3393L24.8175 8.94555ZM19.4133 14.0873C19.4133 13.0734 20.2369 12.2498 21.2508 12.2498C22.2647 12.2498 23.0883 13.0734 23.0883 14.0873C23.0883 15.1012 22.2647 15.9248 21.2508 15.9248C20.2369 15.9248 19.4133 15.1012 19.4133 14.0873ZM16.7883 13.0373C17.8022 13.0373 18.6258 13.8609 18.6258 14.8748C18.6258 15.8887 17.8022 16.7123 16.7883 16.7123C15.7744 16.7123 14.9508 15.8887 14.9508 14.8748C14.9508 13.8609 15.7744 13.0373 16.7883 13.0373ZM14.1633 19.3373C14.1633 18.3234 14.9869 17.4998 16.0008 17.4998C17.0147 17.4998 17.8383 18.3234 17.8383 19.3373C17.8383 20.3512 17.0147 21.1748 16.0008 21.1748C14.9869 21.1748 14.1633 20.3512 14.1633 19.3373ZM13.1133 24.0623C13.1133 23.0484 13.9369 22.2248 14.9508 22.2248C15.9647 22.2248 16.7883 23.0484 16.7883 24.0623C16.7883 25.0762 15.9647 25.8998 14.9508 25.8998C13.9369 25.8998 13.1133 25.0762 13.1133 24.0623ZM17.8383 23.0123C17.8383 21.9984 18.6619 21.1748 19.6758 21.1748C20.6897 21.1748 21.5133 21.9984 21.5133 23.0123C21.5133 24.0262 20.6897 24.8498 19.6758 24.8498C18.6619 24.8498 17.8383 24.0262 17.8383 23.0123ZM24.1383 20.3873C25.1522 20.3873 25.9758 21.2109 25.9758 22.2248C25.9758 23.2387 25.1522 24.0623 24.1383 24.0623C23.1244 24.0623 22.3008 23.2387 22.3008 22.2248C22.3008 21.2109 23.1244 20.3873 24.1383 20.3873ZM18.6258 18.5498C18.6258 17.5359 19.4494 16.7123 20.4633 16.7123C21.4772 16.7123 22.3008 17.5359 22.3008 18.5498C22.3008 19.5637 21.4772 20.3873 20.4633 20.3873C19.4494 20.3873 18.6258 19.5637 18.6258 18.5498ZM24.9258 15.9248C25.9397 15.9248 26.7633 16.7484 26.7633 17.7623C26.7633 18.7762 25.9397 19.5998 24.9258 19.5998C23.9119 19.5998 23.0883 18.7762 23.0883 17.7623C23.0883 16.7484 23.9119 15.9248 24.9258 15.9248Z" fill="#E9E2D5"/>
</svg>
