<svg width="43" height="35" viewBox="0 0 43 35" fill="none" xmlns="http://www.w3.org/2000/svg">
<rect width="43" height="35" rx="17.5" fill="#944131"/>
<path d="M21.5 6C22.0455 6 22.4844 6.41305 22.4844 6.92647V9.3546C23.075 8.80643 23.8871 8.47059 24.7812 8.47059H26.0938C26.4547 8.47059 26.75 8.74853 26.75 9.08824C26.75 10.3119 25.9953 11.3658 24.9002 11.8676C25.9953 12.3695 26.75 13.4233 26.75 14.6471C26.75 14.9868 26.4547 15.2647 26.0938 15.2647H24.125C23.0504 15.2647 22.0988 14.7783 21.5 14.0294C20.9012 14.7783 19.9496 15.2647 18.875 15.2647H16.9062C16.5453 15.2647 16.25 14.9868 16.25 14.6471C16.25 13.4233 17.0047 12.3695 18.0998 11.8676C17.0047 11.3658 16.25 10.3119 16.25 9.08824C16.25 8.74853 16.5453 8.47059 16.9062 8.47059H18.2188C19.1129 8.47059 19.925 8.80643 20.5156 9.3546V6.92647C20.5156 6.41305 20.9545 6 21.5 6ZM14.2812 14.6471C14.2812 16.0097 15.4584 17.1176 16.9062 17.1176H18.875C19.8307 17.1176 20.7289 16.8744 21.5 16.4575C22.2711 16.8783 23.1693 17.1176 24.125 17.1176H26.0938C27.5416 17.1176 28.7188 16.0097 28.7188 14.6471C28.7188 13.9252 28.5547 13.2419 28.2594 12.6243C30.548 13.9947 32 16.1642 32 18.9706C32 24.0237 27.2996 27 21.5 27C15.7004 27 11 24.0237 11 18.9706C11 16.1603 12.452 13.9947 14.7406 12.6243C14.4453 13.2419 14.2812 13.9252 14.2812 14.6471Z" fill="#E9E2D5"/>
</svg>
