<svg width="18" height="18" viewBox="0 0 18 18" fill="none" xmlns="http://www.w3.org/2000/svg">
<path d="M16.25 0C16.9531 0 17.5 0.585938 17.5 1.25V16.25C17.5 16.9531 16.9531 17.5 16.25 17.5H1.25C0.546875 17.5 0 16.9531 0 16.25V1.25C0 0.585938 0.546875 0 1.25 0H16.25ZM5.27344 15H5.3125V6.64062H2.69531V15H5.27344ZM3.98438 2.5C3.16406 2.5 2.5 3.16406 2.5 4.02344C2.5 4.84375 3.16406 5.50781 3.98438 5.50781C4.80469 5.50781 5.50781 4.84375 5.50781 4.02344C5.50781 3.16406 4.80469 2.5 3.98438 2.5ZM15 15V10.4297C15 8.16406 14.5312 6.44531 11.9141 6.44531C10.625 6.44531 9.80469 7.14844 9.45312 7.77344H9.41406V6.64062H6.91406V15H9.53125V10.8594C9.53125 9.76562 9.72656 8.71094 11.0547 8.71094C12.3828 8.71094 12.4219 9.96094 12.4219 10.9375V15H15Z" fill="#E9E2D5"/>
</svg>
