<svg width="12" height="17" viewBox="0 0 12 17" fill="none" xmlns="http://www.w3.org/2000/svg">
<path d="M0.00312495 5.89375C0.00312495 2.6375 2.69063 0 6.00313 0C9.31563 0 12.0031 2.6375 12.0031 5.89375C12.0031 9.62187 8.24688 14.0906 6.67813 15.7937C6.30938 16.1938 5.69375 16.1938 5.325 15.7937C3.75625 14.0906 0 9.62187 0 5.89375H0.00312495ZM6.00313 8C7.10625 8 8.00313 7.10312 8.00313 6C8.00313 4.89687 7.10625 4 6.00313 4C4.9 4 4.00313 4.89687 4.00313 6C4.00313 7.10312 4.9 8 6.00313 8Z" fill="#944131"/>
</svg>
