<svg version="1.2" xmlns="http://www.w3.org/2000/svg" viewBox="0 0 189 72" width="189" height="72">
	<style>
		.s0 { fill: #e9e2d5 } 
	</style>
	<path class="s0" d="m101.77 51.76q3.39 0.8 5.25 3.29 1.91 2.44 1.91 5.67 0 4.93-3.29 7.63-3.23 2.65-9.33 2.65h-19.66v-37.52h19.13q5.73 0 9.01 2.49 3.29 2.49 3.29 7.26 0 3.28-1.75 5.56-1.7 2.23-4.56 2.97zm-13.35-3.66h4.55q1.59 0 2.34-0.63 0.79-0.64 0.79-1.96 0-1.38-0.79-2.02-0.75-0.69-2.34-0.69h-4.55zm5.35 13.47q1.59 0 2.33-0.59 0.8-0.63 0.8-2.01 0-2.7-3.13-2.7h-5.35v5.3zm42.64 3.76h-12.51l-1.85 5.67h-12.35l13.72-37.52h13.57l13.68 37.52h-12.41zm-2.86-8.85l-3.39-10.44-3.39 10.44zm42.26-10.18q-0.69-1.11-1.96-1.69-1.27-0.64-3.07-0.64-3.4 0-5.25 2.23-1.85 2.17-1.85 5.99 0 4.4 2.06 6.57 2.07 2.17 6.36 2.17 4.08 0 6.57-3.28h-9.38v-8.33h19.14v11.77q-2.44 4.19-6.73 7.21-4.3 2.97-10.87 2.97-5.83 0-10.18-2.39-4.29-2.44-6.62-6.78-2.28-4.35-2.28-9.91 0-5.57 2.28-9.91 2.33-4.35 6.62-6.74 4.3-2.43 10.07-2.43 7.37 0 11.98 3.55 4.67 3.55 5.51 9.64z"/>
	<path class="s0" d="m101.97 27h-8.21l-8.7-13.17v13.17h-8.21v-26.2h8.21l8.7 13.4v-13.4h8.21zm11.74-26.19v14.76q0 1.81 0.78 2.89 0.81 1.03 2.59 1.03 1.78 0 2.63-1.03 0.85-1.08 0.85-2.89v-14.76h8.18v14.76q0 3.74-1.56 6.4-1.55 2.63-4.25 3.96-2.71 1.33-6.04 1.33-3.32 0-5.92-1.33-2.55-1.33-3.99-3.96-1.44-2.62-1.44-6.4v-14.76zm39.13 0v6.51h-6.95v19.68h-8.22v-19.68h-6.88v-6.51zm15.4 26.19l-4.92-9.39h-0.04v9.39h-8.21v-26.19h12.21q3.18 0 5.44 1.15 2.25 1.11 3.37 3.07 1.14 1.92 1.14 4.36 0 2.63-1.48 4.66-1.44 2.04-4.18 2.93l5.7 10.02zm-4.96-14.87h3.26q1.18 0 1.77-0.52 0.59-0.55 0.6-1.7-0.01-1.04-0.63-1.63-0.6-0.59-1.74-0.59h-3.26zm24.79-11.32v26.19h-8.22v-26.19z"/>
	<path class="s0" d="m0 1v70.5h23.5v-30.5c4-14.8 17.33-17.17 23.5-16.5l-23.5-23.5z"/>
	<path class="s0" d="m71 71.5v-70.5h-23.5v30.5c-4 14.8-17.33 17.17-23.5 16.5l23.5 23.5z"/>
</svg>