<svg width="22" height="22" viewBox="0 0 22 22" fill="none" xmlns="http://www.w3.org/2000/svg">
<path d="M3.84922 4.39844C2.93828 4.39844 2.19922 5.1375 2.19922 6.04844C2.19922 6.5675 2.44328 7.05562 2.85922 7.36844L10.0092 12.7309C10.597 13.1709 11.4014 13.1709 11.9892 12.7309L19.1392 7.36844C19.5552 7.05562 19.7992 6.5675 19.7992 6.04844C19.7992 5.1375 19.0602 4.39844 18.1492 4.39844H3.84922ZM2.19922 8.93594V15.3984C2.19922 16.6119 3.18578 17.5984 4.39922 17.5984H17.5992C18.8127 17.5984 19.7992 16.6119 19.7992 15.3984V8.93594L12.9792 14.0509C11.807 14.9309 10.1914 14.9309 9.01922 14.0509L2.19922 8.93594Z" fill="#944131"/>
</svg>
