<svg width="110" height="98" viewBox="0 0 110 98" fill="none" xmlns="http://www.w3.org/2000/svg">
<path d="M70.7004 86.3802C68.5765 87.0882 35.8918 93.7549 19.815 96.9997C18.4871 93.9024 19.3729 92.5749 18.9304 90.805C18.4879 89.0351 15.833 80.6279 15.833 79.3005C15.833 78.2385 16.718 77.088 17.1605 76.6456C14.506 70.0083 14.9481 62.9286 14.5056 60.2737C14.0631 57.6188 13.6206 47.8842 13.1781 45.2293C12.7357 42.5744 8.31042 41.247 5.65553 40.8045C3.00063 40.362 -0.539222 38.5921 0.788224 35.9372C2.11567 33.2823 1.23071 35.0522 6.98297 31.0699C12.7352 27.0876 19.3725 25.3176 21.5849 24.4327C23.7973 23.5477 25.1247 22.6628 33.0894 22.2203C41.0541 21.7778 65.3906 15.1406 65.8331 15.1406C66.2756 15.1406 81.7624 9.83079 83.9749 12.0432C86.1873 14.2556 93.267 36.8222 96.8068 46.9993C100.347 57.1764 99.4617 53.6365 103.887 62.0437C108.311 70.4508 108.754 65.5835 108.754 72.2208C108.754 78.858 100.789 78.4155 99.4617 79.3005C98.3998 80.0084 92.5295 80.4804 89.7271 80.6279C81.7624 85.4952 73.3553 85.4952 70.7004 86.3802Z" fill="#944131" stroke="#B45F4F"/>
<path d="M108.466 72.1246C108.023 77.8768 104.926 77.4344 103.599 78.3193C105.811 76.3584 104.772 72.2197 104.772 70.3546C104.772 68.4896 102.271 64.6024 101.386 62.0426C100.501 59.4829 93.4215 46.9982 92.0941 42.0358C90.7667 37.0734 88.9967 32.7437 88.5542 29.6463C88.1118 26.5489 84.8606 21.2391 83.2445 17.2568C81.9516 14.0709 78.8709 12.4523 77.4922 12.0412C77.9347 12.0412 82.6481 9.82972 84.8606 12.0421C87.073 14.2545 94.1527 36.8211 97.6925 46.9982C101.232 57.1753 100.347 53.6355 104.772 62.0426C109.197 70.4498 108.975 65.5069 108.466 72.1246Z" fill="#B45F4F" stroke="#B45F4F"/>
<path d="M28.3771 95.0358C26.2532 95.7437 36.7775 93.6576 20.7007 96.9025C19.3728 93.8051 20.2586 92.4777 19.8162 90.7077C19.3737 88.9378 16.7188 80.5306 16.7188 79.2032C16.7188 78.1412 17.6037 76.9908 18.0462 76.5483C15.3918 69.9111 15.8338 62.8314 15.3913 60.1765C14.9489 57.5216 14.5064 47.787 14.0639 45.1321C13.6214 42.4772 9.19616 41.1497 6.54127 40.7073C3.88638 40.2648 0.34652 38.4949 1.67397 35.84C3.00141 33.1851 2.11645 34.955 7.86872 30.9727C7.07983 31.8899 5.97538 34.1475 7.86872 35.84C10.2354 37.9556 14.0639 39.0341 15.3913 40.7073C16.7188 42.3804 18.0462 41.053 18.0462 46.3627C18.0462 51.6725 18.9316 61.4071 19.8162 64.062C20.7007 66.7169 22.6249 73.8934 22.6249 76.5483C22.6249 79.2032 20.7007 80.4339 20.7007 82.6463C20.7007 84.8587 22.1824 88.5921 23.9523 90.7077C25.7223 92.8233 26.975 95.0358 28.3771 95.0358Z" fill="#B45F4F" stroke="#B45F4F"/>
<circle cx="40.2875" cy="43.7714" r="3.2694" transform="rotate(39.1522 40.2875 43.7714)" fill="#B25543"/>
<circle cx="42.6469" cy="58.8847" r="3.2694" transform="rotate(39.1522 42.6469 58.8847)" fill="#B25543"/>
<ellipse cx="32.7609" cy="52.1135" rx="3.83799" ry="3.69585" transform="rotate(39.1522 32.7609 52.1135)" fill="#B25543"/>
<ellipse cx="24.8146" cy="42.09" rx="3.83799" ry="3.69585" transform="rotate(39.1522 24.8146 42.09)" fill="#B25543"/>
<ellipse cx="50.0968" cy="49.7376" rx="4.40659" ry="4.26444" transform="rotate(39.1522 50.0968 49.7376)" fill="#B25543"/>
<ellipse cx="53.0958" cy="78.4134" rx="4.40659" ry="4.26444" transform="rotate(39.1522 53.0958 78.4134)" fill="#B25543"/>
<ellipse cx="65.1759" cy="37.2611" rx="4.40659" ry="4.26444" transform="rotate(39.1522 65.1759 37.2611)" fill="#B25543"/>
<ellipse cx="79.0175" cy="23.3795" rx="2.49936" ry="2.41873" transform="rotate(39.1522 79.0175 23.3795)" fill="#B25543"/>
<ellipse cx="75.7509" cy="39.1959" rx="2.49936" ry="2.41873" transform="rotate(39.1522 75.7509 39.1959)" fill="#B25543"/>
<ellipse cx="58.4774" cy="69.4928" rx="2.49936" ry="2.41873" transform="rotate(39.1522 58.4774 69.4928)" fill="#B25543"/>
<ellipse cx="39.8456" cy="70.5826" rx="2.49936" ry="2.41873" transform="rotate(39.1522 39.8456 70.5826)" fill="#B25543"/>
<ellipse cx="41.1397" cy="31.2611" rx="4.40659" ry="4.26444" transform="rotate(39.1522 41.1397 31.2611)" fill="#B25543"/>
<circle cx="40.0269" cy="51.0723" r="2.55866" transform="rotate(39.1522 40.0269 51.0723)" fill="#D99689"/>
<ellipse cx="49.6331" cy="57.0597" rx="3.2694" ry="3.12725" transform="rotate(39.1522 49.6331 57.0597)" fill="#C17465"/>
<circle cx="41.6548" cy="37.3614" r="2.55866" transform="rotate(39.1522 41.6548 37.3614)" fill="#C17465"/>
<circle cx="82.896" cy="35.9769" r="2.99892" transform="rotate(39.1522 82.896 35.9769)" fill="#C17465"/>
<circle cx="48.5034" cy="68.0198" r="2.99892" transform="rotate(39.1522 48.5034 68.0198)" fill="#C17465"/>
<circle cx="36.6704" cy="79.8245" r="2.99892" transform="rotate(39.1522 36.6704 79.8245)" fill="#C17465"/>
<circle cx="30.9884" cy="34.4422" r="3.79616" transform="rotate(39.1522 30.9884 34.4422)" fill="#C17465"/>
<circle cx="58.9859" cy="44.3419" r="2.55866" transform="rotate(39.1522 58.9859 44.3419)" fill="#C17465"/>
<circle cx="52.5601" cy="26.2325" r="2.55866" transform="rotate(39.1522 52.5601 26.2325)" fill="#C17465"/>
<circle cx="31.5249" cy="67.502" r="2.55866" transform="rotate(39.1522 31.5249 67.502)" fill="#C17465"/>
<circle cx="29.0823" cy="58.6565" r="3.69585" transform="rotate(39.1522 29.0823 58.6565)" fill="#C17465"/>
<circle cx="35.7066" cy="42.4161" r="2.55866" transform="rotate(39.1522 35.7066 42.4161)" fill="#D99689"/>
<circle cx="51.3169" cy="34.334" r="2.55866" transform="rotate(39.1522 51.3169 34.334)" fill="#D99689"/>
<circle cx="48.104" cy="41.1426" r="2.55866" transform="rotate(39.1522 48.104 41.1426)" fill="#D99689"/>
<circle cx="44.6939" cy="76.7598" r="2.55866" transform="rotate(39.1522 44.6939 76.7598)" fill="#D99689"/>
<circle cx="74.3531" cy="32.1661" r="2.55866" transform="rotate(39.1522 74.3531 32.1661)" fill="#D99689"/>
<circle cx="63.1226" cy="25.9825" r="2.55866" transform="rotate(39.1522 63.1226 25.9825)" fill="#D99689"/>
<circle cx="30.4787" cy="74.8015" r="3.59344" transform="rotate(39.1522 30.4787 74.8015)" fill="#D99689"/>
<circle cx="35.5503" cy="60.6192" r="2.55866" transform="rotate(39.1522 35.5503 60.6192)" fill="#D99689"/>
<circle cx="28.6773" cy="48.7989" r="2.55866" transform="rotate(39.1522 28.6773 48.7989)" fill="#D99689"/>
<circle cx="75.7071" cy="63.4055" r="3.2694" transform="rotate(-141.439 75.7071 63.4055)" fill="#B25543"/>
<circle cx="73.1934" cy="48.3235" r="3.2694" transform="rotate(-141.439 73.1934 48.3235)" fill="#B25543"/>
<ellipse cx="83.1503" cy="54.9794" rx="3.83799" ry="3.69585" transform="rotate(-141.439 83.1503 54.9794)" fill="#B25543"/>
<ellipse cx="91.1982" cy="64.9247" rx="3.83799" ry="3.69585" transform="rotate(-141.439 91.1982 64.9247)" fill="#B25543"/>
<ellipse cx="65.8375" cy="57.5436" rx="4.40658" ry="4.26444" transform="rotate(-141.439 65.8375 57.5436)" fill="#B25543"/>
<ellipse cx="74.983" cy="75.9225" rx="4.40658" ry="4.26444" transform="rotate(-141.439 74.983 75.9225)" fill="#B25543"/>
<circle cx="75.893" cy="56.0996" r="2.55866" transform="rotate(-141.439 75.893 56.0996)" fill="#D99689"/>
<ellipse cx="66.2268" cy="50.2159" rx="3.2694" ry="3.12725" transform="rotate(-141.439 66.2268 50.2159)" fill="#C17465"/>
<circle cx="74.4086" cy="69.8301" r="2.55866" transform="rotate(-141.439 74.4086 69.8301)" fill="#C17465"/>
<circle cx="85.105" cy="72.6419" r="3.79616" transform="rotate(-141.439 85.105 72.6419)" fill="#C17465"/>
<circle cx="57.0083" cy="63.0254" r="2.55866" transform="rotate(-141.439 57.0083 63.0254)" fill="#C17465"/>
<circle cx="86.7615" cy="48.4" r="3.69585" transform="rotate(-141.439 86.7615 48.4)" fill="#C17465"/>
<circle cx="80.3022" cy="64.709" r="2.55866" transform="rotate(-141.439 80.3022 64.709)" fill="#D99689"/>
<circle cx="64.7758" cy="72.9551" r="2.55866" transform="rotate(-141.439 64.7758 72.9551)" fill="#D99689"/>
<circle cx="67.9194" cy="66.1075" r="2.55866" transform="rotate(-141.439 67.9194 66.1075)" fill="#D99689"/>
<circle cx="80.271" cy="46.5059" r="2.55866" transform="rotate(-141.439 80.271 46.5059)" fill="#D99689"/>
<circle cx="87.2661" cy="58.2598" r="2.55866" transform="rotate(-141.439 87.2661 58.2598)" fill="#D99689"/>
</svg>
