<svg width="91" height="92" viewBox="0 0 91 92" fill="none" xmlns="http://www.w3.org/2000/svg">
<circle cx="43.132" cy="44.0499" r="35.2921" fill="#944131"/>
<path d="M67.5623 50.5633C62.6057 69.0613 46.0619 80.7007 30.6107 76.5606C15.1594 72.4204 4.10024 53.0563 9.05678 34.5582C14.0133 16.0602 33.1087 5.43305 48.5599 9.5732C64.0112 13.7134 72.5188 32.0652 67.5623 50.5633Z" fill="#B45F4F"/>
<circle cx="31.936" cy="33.8324" r="5.59806" fill="#944131"/>
<circle cx="51.4067" cy="51.352" r="5.59806" fill="#944131"/>
<ellipse cx="30.9613" cy="53.0548" rx="6.57164" ry="6.32824" fill="#944131"/>
<ellipse cx="51.4075" cy="31.1495" rx="7.54521" ry="7.30182" fill="#944131"/>
<circle cx="39.4817" cy="43.8069" r="4.38109" fill="#D99689"/>
<ellipse cx="58.7094" cy="41.3742" rx="5.59806" ry="5.35467" fill="#C17465"/>
<circle cx="26.8245" cy="23.8498" r="4.38109" fill="#C17465"/>
<circle cx="33.1525" cy="65.715" r="6.32824" fill="#C17465"/>
<circle cx="24.3918" cy="36.9905" r="4.38109" fill="#D99689"/>
<circle cx="39.4817" cy="21.9006" r="4.38109" fill="#D99689"/>
<circle cx="43.8625" cy="61.3342" r="4.38109" fill="#D99689"/>
<circle cx="21.9573" cy="53.0569" r="4.38109" fill="#D99689"/>
<path d="M22.1458 12.0966C22.2855 12.3348 22.5918 12.4147 22.83 12.2751C23.0682 12.1354 23.1481 11.8291 23.0085 11.5909L22.5771 11.8438L22.1458 12.0966ZM17.0629 2.43716L17.1011 8.21053L22.0819 5.29076L17.0629 2.43716ZM22.5771 11.8438L23.0085 11.5909L19.77 6.06644L19.3387 6.3193L18.9073 6.57216L22.1458 12.0966L22.5771 11.8438Z" fill="#944131"/>
<path d="M44.3614 80.8354C44.3783 80.5598 44.1687 80.3226 43.893 80.3056C43.6174 80.2887 43.3802 80.4983 43.3633 80.774L43.8623 80.8047L44.3614 80.8354ZM43.2247 91.1577L46.4133 86.3446L40.6507 85.9897L43.2247 91.1577ZM43.8623 80.8047L43.3633 80.774L43.0022 86.6355L43.5013 86.6662L44.0004 86.697L44.3614 80.8354L43.8623 80.8047Z" fill="#944131"/>
<path d="M80.3966 38.9303C80.1208 38.9163 79.8858 39.1284 79.8717 39.4042C79.8577 39.68 80.0698 39.915 80.3456 39.929L80.3711 39.4297L80.3966 38.9303ZM90.9996 39.9718L86.1531 36.8341L85.8591 42.6001L90.9996 39.9718ZM80.3711 39.4297L80.3456 39.929L86.48 40.2419L86.5055 39.7426L86.5309 39.2432L80.3966 38.9303L80.3711 39.4297Z" fill="#944131"/>
<path d="M63.4926 29.2528C63.2266 29.3269 63.0711 29.6027 63.1453 29.8687C63.2195 30.1347 63.4953 30.2902 63.7613 30.216L63.627 29.7344L63.4926 29.2528ZM77.1519 25.9622L71.5601 24.5248L73.1112 30.0861L77.1519 25.9622ZM63.627 29.7344L63.7613 30.216L72.9516 27.6527L72.8173 27.1711L72.683 26.6895L63.4926 29.2528L63.627 29.7344Z" fill="#D99689"/>
<path d="M66.5049 62.8443C66.2657 62.7063 65.9599 62.7882 65.8219 63.0273C65.6838 63.2665 65.7657 63.5723 66.0049 63.7104L66.2549 63.2773L66.5049 62.8443ZM78.4148 70.2979L75.5281 65.2979L72.6413 70.2979L78.4148 70.2979ZM66.2549 63.2773L66.0049 63.7104L74.2677 68.4809L74.5177 68.0479L74.7677 67.6149L66.5049 62.8443L66.2549 63.2773Z" fill="#C17465"/>
<path d="M47.7612 13.4331C47.6897 13.6998 47.848 13.974 48.1147 14.0455C48.3815 14.1169 48.6556 13.9586 48.7271 13.6919L48.2441 13.5625L47.7612 13.4331ZM51.8782 -0.000171547L47.7958 4.08231L53.3725 5.5766L51.8782 -0.000171547ZM48.2441 13.5625L48.7271 13.6919L51.1965 4.4759L50.7136 4.34649L50.2306 4.21709L47.7612 13.4331L48.2441 13.5625Z" fill="#C17465"/>
<path d="M13.4848 32.3462C13.7516 32.4177 14.0257 32.2594 14.0972 31.9927C14.1687 31.726 14.0104 31.4518 13.7437 31.3803L13.6143 31.8633L13.4848 32.3462ZM0.0515881 28.2292L4.13407 32.3117L5.62836 26.7349L0.0515881 28.2292ZM13.6143 31.8633L13.7437 31.3803L4.52766 28.9109L4.39825 29.3939L4.26884 29.8768L13.4848 32.3462L13.6143 31.8633Z" fill="#C17465"/>
<path d="M17.8164 63.7104C18.0556 63.5723 18.1375 63.2665 17.9994 63.0273C17.8613 62.7882 17.5556 62.7063 17.3164 62.8443L17.5664 63.2773L17.8164 63.7104ZM5.40645 70.2979L11.18 70.2979L8.2932 65.2979L5.40645 70.2979ZM17.5664 63.2773L17.3164 62.8443L9.05356 67.6149L9.30356 68.0479L9.55356 68.4809L17.8164 63.7104L17.5664 63.2773Z" fill="#D99689"/>
</svg>
