<svg width="118" height="99" viewBox="0 0 118 99" fill="none" xmlns="http://www.w3.org/2000/svg">
<path d="M73.9684 78.0029C72.3203 78.5522 46.9585 83.7253 34.4836 86.2432C33.4532 83.8398 34.1406 82.8097 33.7972 81.4363C33.4539 80.063 31.3938 73.5394 31.3938 72.5093C31.3938 71.6853 32.0805 70.7926 32.4239 70.4493C30.3641 65.2991 30.7071 59.8056 30.3638 57.7455C30.0204 55.6854 29.6771 48.1318 29.3338 46.0717C28.9904 44.0117 25.5566 42.9816 23.4965 42.6383C21.4365 42.2949 18.6897 40.9215 19.7197 38.8615C20.7498 36.8014 20.0631 38.1748 24.5266 35.0847C28.9901 31.9945 34.1403 30.6212 35.857 29.9345C37.5737 29.2478 38.6038 28.5611 44.784 28.2177C50.9642 27.8744 69.8482 22.7242 70.1916 22.7242C70.5349 22.7242 82.552 18.6041 84.2687 20.3208C85.9855 22.0375 91.479 39.5482 94.2258 47.4451C96.9725 55.3421 96.2858 52.5953 99.7193 59.1189C103.153 65.6424 103.496 61.8656 103.496 67.0158C103.496 72.166 97.3159 71.8227 96.2858 72.5094C95.4618 73.0587 90.9068 73.4249 88.7322 73.5394C82.552 77.3162 76.0284 77.3162 73.9684 78.0029Z" fill="#944131" stroke="#B45F4F"/>
<path d="M103.272 66.9391C102.929 71.4026 100.526 71.0592 99.4957 71.7459C101.212 70.2243 100.406 67.0129 100.406 65.5657C100.406 64.1185 98.4656 61.1022 97.7789 59.1159C97.0923 57.1297 91.5987 47.4422 90.5687 43.5916C89.5387 39.7409 88.1653 36.3813 87.8219 33.9779C87.4786 31.5745 84.9558 27.4543 83.7018 24.3642C82.6986 21.8921 80.3081 20.6361 79.2383 20.3171C79.5816 20.3171 83.2391 18.6011 84.9558 20.3179C86.6725 22.0346 92.1661 39.5452 94.9128 47.4422C97.6596 55.3391 96.9729 52.5924 100.406 59.1159C103.84 65.6395 103.667 61.8041 103.272 66.9391Z" fill="#B45F4F" stroke="#B45F4F"/>
<path d="M41.1267 84.7178C39.4786 85.2672 47.645 83.6485 35.1701 86.1663C34.1398 83.7629 34.8271 82.7329 34.4838 81.3595C34.1404 79.9861 32.0804 73.4625 32.0804 72.4325C32.0804 71.6085 32.767 70.7158 33.1104 70.3724C31.0506 65.2222 31.3937 59.7287 31.0503 57.6686C30.707 55.6086 30.3636 48.0549 30.0203 45.9949C29.6769 43.9348 26.2431 42.9048 24.1831 42.5614C22.123 42.2181 19.3762 40.8447 20.4063 38.7846C21.4363 36.7245 20.7496 38.0979 25.2131 35.0078C24.601 35.7195 23.744 37.4713 25.2131 38.7846C27.0495 40.4262 30.0203 41.2631 31.0503 42.5614C32.0804 43.8597 33.1104 42.8297 33.1104 46.9498C33.1104 51.07 33.7974 58.6236 34.4838 60.6836C35.1701 62.7437 36.6632 68.3123 36.6632 70.3724C36.6632 72.4325 35.1701 73.3874 35.1701 75.1041C35.1701 76.8209 36.3199 79.7179 37.6932 81.3595C39.0666 83.0011 40.0387 84.7178 41.1267 84.7178Z" fill="#B45F4F" stroke="#B45F4F"/>
<circle cx="50.3704" cy="44.9441" r="2.53691" transform="rotate(39.1522 50.3704 44.9441)" fill="#B25543"/>
<circle cx="52.1995" cy="56.6667" r="2.53691" transform="rotate(39.1522 52.1995 56.6667)" fill="#B25543"/>
<ellipse cx="44.529" cy="51.4167" rx="2.97811" ry="2.86781" transform="rotate(39.1522 44.529 51.4167)" fill="#B25543"/>
<ellipse cx="38.362" cy="43.6394" rx="2.97811" ry="2.86781" transform="rotate(39.1522 38.362 43.6394)" fill="#B25543"/>
<ellipse cx="57.9813" cy="49.5687" rx="3.41931" ry="3.30901" transform="rotate(39.1522 57.9813 49.5687)" fill="#B25543"/>
<ellipse cx="60.3074" cy="71.8187" rx="3.41931" ry="3.30901" transform="rotate(39.1522 60.3074 71.8187)" fill="#B25543"/>
<ellipse cx="69.6805" cy="39.889" rx="3.41931" ry="3.30901" transform="rotate(39.1522 69.6805 39.889)" fill="#B25543"/>
<ellipse cx="80.4225" cy="29.1174" rx="1.93938" ry="1.87682" transform="rotate(39.1522 80.4225 29.1174)" fill="#B25543"/>
<ellipse cx="77.8863" cy="41.3909" rx="1.93938" ry="1.87682" transform="rotate(39.1522 77.8863 41.3909)" fill="#B25543"/>
<ellipse cx="64.485" cy="64.8987" rx="1.93938" ry="1.87682" transform="rotate(39.1522 64.485 64.8987)" fill="#B25543"/>
<ellipse cx="50.027" cy="65.7463" rx="1.93938" ry="1.87682" transform="rotate(39.1522 50.027 65.7463)" fill="#B25543"/>
<ellipse cx="51.0311" cy="35.2327" rx="3.41931" ry="3.30901" transform="rotate(39.1522 51.0311 35.2327)" fill="#B25543"/>
<circle cx="50.1679" cy="50.6057" r="1.9854" transform="rotate(39.1522 50.1679 50.6057)" fill="#D99689"/>
<ellipse cx="57.6207" cy="55.2531" rx="2.53691" ry="2.4266" transform="rotate(39.1522 57.6207 55.2531)" fill="#C17465"/>
<circle cx="51.4306" cy="39.969" r="1.9854" transform="rotate(39.1522 51.4306 39.969)" fill="#C17465"/>
<circle cx="83.432" cy="38.891" r="2.32703" transform="rotate(39.1522 83.432 38.891)" fill="#C17465"/>
<circle cx="56.7445" cy="63.7543" r="2.32703" transform="rotate(39.1522 56.7445 63.7543)" fill="#C17465"/>
<circle cx="47.5638" cy="72.9183" r="2.32703" transform="rotate(39.1522 47.5638 72.9183)" fill="#C17465"/>
<circle cx="43.1549" cy="37.7027" r="2.94564" transform="rotate(39.1522 43.1549 37.7027)" fill="#C17465"/>
<circle cx="64.8779" cy="45.3869" r="1.9854" transform="rotate(39.1522 64.8779 45.3869)" fill="#C17465"/>
<circle cx="59.8935" cy="31.3322" r="1.9854" transform="rotate(39.1522 59.8935 31.3322)" fill="#C17465"/>
<circle cx="43.5693" cy="63.3518" r="1.9854" transform="rotate(39.1522 43.5693 63.3518)" fill="#C17465"/>
<circle cx="41.6749" cy="56.4916" r="2.86781" transform="rotate(39.1522 41.6749 56.4916)" fill="#C17465"/>
<circle cx="46.8154" cy="43.8869" r="1.9854" transform="rotate(39.1522 46.8154 43.8869)" fill="#D99689"/>
<circle cx="58.9277" cy="37.6174" r="1.9854" transform="rotate(39.1522 58.9277 37.6174)" fill="#D99689"/>
<circle cx="56.4345" cy="42.9025" r="1.9854" transform="rotate(39.1522 56.4345 42.9025)" fill="#D99689"/>
<circle cx="53.789" cy="70.5354" r="1.9854" transform="rotate(39.1522 53.789 70.5354)" fill="#D99689"/>
<circle cx="76.8017" cy="35.9338" r="1.9854" transform="rotate(39.1522 76.8017 35.9338)" fill="#D99689"/>
<circle cx="68.0888" cy="31.1369" r="1.9854" transform="rotate(39.1522 68.0888 31.1369)" fill="#D99689"/>
<circle cx="42.7572" cy="69.0165" r="2.78835" transform="rotate(39.1522 42.7572 69.0165)" fill="#D99689"/>
<circle cx="46.6933" cy="58.0158" r="1.9854" transform="rotate(39.1522 46.6933 58.0158)" fill="#D99689"/>
<circle cx="41.3613" cy="48.84" r="1.9854" transform="rotate(39.1522 41.3613 48.84)" fill="#D99689"/>
<circle cx="77.8525" cy="60.1771" r="2.53691" transform="rotate(-141.439 77.8525 60.1771)" fill="#B25543"/>
<circle cx="75.9014" cy="48.474" r="2.53691" transform="rotate(-141.439 75.9014 48.474)" fill="#B25543"/>
<ellipse cx="83.6288" cy="53.6394" rx="2.97811" ry="2.86781" transform="rotate(-141.439 83.6288 53.6394)" fill="#B25543"/>
<ellipse cx="89.873" cy="61.3543" rx="2.97811" ry="2.86781" transform="rotate(-141.439 89.873 61.3543)" fill="#B25543"/>
<ellipse cx="70.1946" cy="55.6288" rx="3.41931" ry="3.30901" transform="rotate(-141.439 70.1946 55.6288)" fill="#B25543"/>
<ellipse cx="77.2903" cy="69.8905" rx="3.41931" ry="3.30901" transform="rotate(-141.439 77.2903 69.8905)" fill="#B25543"/>
<circle cx="77.9957" cy="54.5068" r="1.9854" transform="rotate(-141.439 77.9957 54.5068)" fill="#D99689"/>
<ellipse cx="70.4967" cy="49.943" rx="2.53691" ry="2.4266" transform="rotate(-141.439 70.4967 49.943)" fill="#C17465"/>
<circle cx="76.8443" cy="65.1631" r="1.9854" transform="rotate(-141.439 76.8443 65.1631)" fill="#C17465"/>
<circle cx="85.1441" cy="67.3449" r="2.94564" transform="rotate(-141.439 85.1441 67.3449)" fill="#C17465"/>
<circle cx="63.3433" cy="59.8818" r="1.9854" transform="rotate(-141.439 63.3433 59.8818)" fill="#C17465"/>
<circle cx="86.429" cy="48.5324" r="2.86781" transform="rotate(-141.439 86.429 48.5324)" fill="#C17465"/>
<circle cx="81.4175" cy="61.1865" r="1.9854" transform="rotate(-141.439 81.4175 61.1865)" fill="#D99689"/>
<circle cx="69.3707" cy="67.5849" r="1.9854" transform="rotate(-141.439 69.3707 67.5849)" fill="#D99689"/>
<circle cx="71.8091" cy="62.2724" r="1.9854" transform="rotate(-141.439 71.8091 62.2724)" fill="#D99689"/>
<circle cx="81.3941" cy="47.0654" r="1.9854" transform="rotate(-141.439 81.3941 47.0654)" fill="#D99689"/>
<circle cx="86.8218" cy="56.1826" r="1.9854" transform="rotate(-141.439 86.8218 56.1826)" fill="#D99689"/>
<path d="M58.0017 9.07031C55.9528 10.8728 53.5417 13.6925 50.9816 17.6717C49.2377 20.3822 49.4648 22.7231 49.6143 24.2925C49.7698 25.9244 50.2031 27.6604 51.3795 31.8959C51.9326 33.8874 51.603 35.4541 50.1154 38.3908C49.4697 39.6654 47.9 40.5961 44.868 42.0829C42.836 43.0794 39.5834 44.0854 35.5434 45.2158C31.5034 46.3463 26.7186 47.4476 22.9591 48.1578C16.6446 49.3506 13.5819 49.5275 12.8741 49.8277C10.3128 50.9142 9.60009 55.301 9.14393 57.035C8.62719 58.9994 7.34583 60.5227 6.57748 61.3871C5.88849 62.0521 4.51098 62.3795 2.77757 62.4198C2.09029 62.4202 1.79359 62.38 1 61.6067" stroke="#D98676" stroke-width="2" stroke-linecap="round"/>
<path d="M9.99805 54.2891C11.6906 56.5095 13.2889 58.9273 13.906 60.9106C14.2891 62.1418 14.0082 63.4717 13.7647 64.6465C13.2489 67.1345 11.6043 67.5813 11.4207 68.475C10.7011 71.9765 13.3242 74.1883 13.3823 77.9092C13.0247 79.1917 12.6456 80.1705 12.4834 81.0148C12.4545 81.4071 12.5342 81.726 12.858 82.417" stroke="#D98676" stroke-width="2" stroke-linecap="round"/>
<path d="M61.4857 1C61.2844 1.59922 60.3936 3.36789 59.5182 5.20059C58.5162 7.29835 58.7612 9.00491 59.2427 10.718C59.9926 13.3866 61.3879 15.8484 62.0798 18.0411C62.5228 19.445 62.8251 20.7739 62.9301 23.339C63.1583 28.911 63.1488 33.6836 62.5451 35.6573C61.6581 38.5573 59.1835 40.3113 57.3494 42.4621C56.0458 43.9908 56.7086 46.8953 57.1396 48.7722C57.8692 51.9489 61.9733 55.1859 63.0942 57.4092C64.6907 60.5761 63.5503 64.2419 62.8757 66.3377C62.1264 68.6655 58.8634 71.419 51.8824 74.8614C48.3142 76.6208 46.4872 79.757 46.158 81.605C45.6964 84.1972 46.9179 86.7778 47.02 88.5765C47.1042 90.0613 47.2417 92.141 46.7973 93.6409C45.606 94.3477 43.3711 94.4668 41.0796 94.4961C40.1761 94.5254 39.7993 94.5841 39.2891 94.6445" stroke="#D98676" stroke-width="2" stroke-linecap="round"/>
<path d="M45.8482 81.3047C42.9667 81.3047 41.1497 81.3047 40.1592 81.8537C36.6027 83.8249 36.8607 85.7465 36.2556 86.5348C35.7202 87.2323 35.0416 87.5951 34.2942 87.6698C33.7395 87.6726 32.8288 87.6042 32.0984 87.4991C31.3679 87.3939 30.8452 87.2541 30.3066 86.8901" stroke="#D98676" stroke-width="2" stroke-linecap="round"/>
<path d="M22.1862 47.9755C20.7801 47.7292 18.8982 47.0154 18.074 46.3073C16.9135 45.3101 16.9258 44.106 16.4245 42.9492C15.8494 41.6218 13.6722 41.441 13.2186 41.3416C12.6413 41.2152 12.1573 41.6985 11.8416 41.9283C11.1245 41.7728 10.3637 41.3635 9.27698 40.9209C8.63807 40.6461 7.82164 40.2697 6.98047 39.8086" stroke="#D98676" stroke-width="2" stroke-linecap="round"/>
<path d="M63.4414 24.9375C63.6073 25.7028 64.8033 28.4025 66.0278 31.0621C67.3569 33.949 71.1763 36.7405 73.9747 38.2804C79.9695 41.5793 81.8578 42.8169 83.6396 43.9723C84.5038 44.5326 85.0136 45.4897 85.2953 46.7827C85.7008 48.6438 85.5142 50.166 84.8452 52.0303C82.0806 59.7337 80.8294 61.1939 80.5228 62.3139C80.3178 63.0625 80.6918 64.1307 81.2325 65.5088C81.9205 67.2626 83.6486 69.0236 86.473 70.7864C90.1311 73.0696 93.0031 73.8785 93.6392 74.397C94.6989 75.2607 94.7442 77.0565 95.5078 79.0314C96.5171 81.642 96.4099 83.2244 96.7659 84.5011C97.1149 85.7527 97.3181 86.7826 97.7921 87.2347C98.3752 87.7908 99.6094 87.6234 100.658 87.4665C101.499 87.3409 101.836 86.5059 102.359 86.1975C105.004 84.6378 106.874 87.7033 108.496 89.4766C109.13 90.1695 111.71 91.9683 116.996 93.4766" stroke="#D98676" stroke-width="2" stroke-linecap="round"/>
<path d="M102.201 87.207C101.866 87.6063 100.719 88.6774 99.9933 89.5141C98.8047 90.8848 101.251 93.413 101.503 93.9646C101.623 94.2293 101.455 94.5495 101.229 94.8107C99.7928 95.6877 98.463 96.2848 97.9242 96.7364C97.6858 96.9556 97.5182 97.1547 97.041 97.561" stroke="#D98676" stroke-width="2" stroke-linecap="round"/>
<path d="M61.5488 15.2539C61.7968 15.3251 62.0448 15.3963 63.0814 15.5615C64.1179 15.7266 65.9354 15.9835 67.2927 16.2132C69.5013 16.587 70.4795 16.8877 70.8153 16.9978C71.3288 17.1662 72.4261 17.5647 74.0992 18.4135C76.0654 19.411 77.2408 19.774 77.4961 19.9766" stroke="#D98676" stroke-width="2" stroke-linecap="round"/>
<path d="M96.8008 50.2773C97.4582 50.5566 98.5315 50.716 99.6333 50.8661C100.908 51.0399 101.79 51.235 102.601 51.3558C103.311 51.4615 104.107 51.694 105.466 52.9391C105.91 53.3468 106.168 53.6123 106.568 53.7721C107.211 53.8527 109.325 53.8268 112.199 53.7044C113.353 53.6282 113.886 53.5235 114.616 53.4155" stroke="#D98676" stroke-width="2" stroke-linecap="round"/>
<path d="M104.281 51.0126C105.561 49.0184 107.113 46.7499 107.982 45.4746C108.118 45.2743 108.181 45.1048 108.311 45.0028C108.44 44.9009 108.618 44.8609 109.746 44.8634C110.875 44.8658 112.947 44.9118 115.143 44.8987" stroke="#D98676" stroke-width="2" stroke-linecap="round"/>
<path d="M61.1105 1.125C60.7265 1.80891 59.7807 3.67412 59.2832 4.86016C58.9598 5.63101 58.7973 6.02598 58.6258 6.40753C58.412 6.88311 58.1434 7.61688 57.8852 8.14214C57.6677 8.58451 57.3958 8.96614 57.1875 9.34294C56.9299 9.74375 56.7587 10.0705 56.6122 10.3491C56.5383 10.4715 56.4656 10.5556 56.3906 10.6422" stroke="#D98676" stroke-width="2" stroke-linecap="round"/>
<path d="M61.5865 1.33203C61.5027 2.00806 61.3252 2.92865 61.1008 4.17365C60.6878 6.46431 60.8719 7.12479 60.8415 7.70479C60.7973 8.5489 60.8886 9.12015 60.9608 9.76011C61.0129 10.2219 61.1349 10.6605 61.2434 11.3482C61.3652 12.1204 61.5318 12.4977 61.719 13.0475C61.8814 13.5248 61.9787 14.0203 62.1539 14.6464C62.4631 15.7515 62.4604 16.2086 62.5515 16.6203C62.6568 17.0968 62.8115 17.5003 62.9102 18.0015C63.0072 18.4941 63.2029 19.1148 63.27 19.7702C63.4204 21.2393 63.3477 21.9333 63.4621 22.5859C63.5228 23.0239 63.5591 23.5156 63.5832 24.0227C63.5954 24.2425 63.6074 24.3861 63.6197 24.4612" stroke="#D98676" stroke-width="2" stroke-linecap="round"/>
<path d="M50.5851 18.293C50.3706 18.6522 49.9046 19.5422 49.4719 20.3123C48.619 21.8303 47.634 22.3549 46.2287 22.9634C45.3884 23.3273 43.833 23.3137 41.9391 23.3904C39.5787 23.4859 38.9806 23.7539 38.3448 24.2278C37.4224 24.9153 37.7478 25.9311 37.4459 26.4377C37.2676 26.7369 35.8239 26.994 33.5862 27.429C32.5123 27.6377 31.532 27.6386 29.9503 27.7051C28.3685 27.7717 26.207 27.857 25.0492 27.9537C23.7278 28.4182 22.8359 28.9254 21.2532 29.2298C20.5954 29.3387 20.2329 29.355 19.8594 29.3718" stroke="#D98676" stroke-width="2" stroke-linecap="round"/>
<path d="M51.9902 16.7773C52.3246 17.3064 53.1966 18.5738 54.0036 19.1475C54.8722 19.765 55.7527 20.2006 56.1503 20.7147C56.2996 21.539 56.2003 22.0836 56.0923 22.3218C56.0502 22.4458 56.0337 22.5763 56.0167 22.7107" stroke="#D98676" stroke-width="2" stroke-linecap="round"/>
<path d="M85.2488 69.9258C85.3819 70.8455 85.6284 71.9325 86.13 73.3758C87.2283 76.5352 87.7708 77.0738 87.5563 77.8846C87.1109 79.5683 85.2298 80.287 84.3161 80.9622C83.931 81.2468 83.8281 81.7291 83.7889 82.0953C83.6213 83.6599 85.0502 85.876 85.3045 87.1412C85.4662 87.9454 85.0699 88.7206 84.5111 89.3378C83.5324 90.4191 82.7752 90.5629 82.2009 90.7499C82.0625 90.8182 81.9435 90.9026 81.8226 91.0136C81.7017 91.1246 81.5826 91.2597 81.4082 91.3988" stroke="#D98676" stroke-linecap="round"/>
<path d="M107.727 54.0352C108.011 54.3863 109.006 55.2813 109.443 55.8426C110.131 56.7272 108.268 58.6238 108.074 60.2397C108.482 61.1721 108.858 61.6151 109.054 61.9215C109.148 62.0592 109.232 62.1604 109.37 62.2648" stroke="#D98676" stroke-linecap="round"/>
<path d="M46.75 80.0977C47.1579 81.9643 47.6016 83.2289 48.1875 83.7812C49.3826 84.9075 50.2922 84.551 50.5426 84.9092C50.7204 86.4141 51.2874 87.1956 51.9369 88.1064C52.1555 88.3973 52.471 88.76 52.8677 89.2769" stroke="#D98676" stroke-linecap="round"/>
<path d="M14.6562 60.6875C15.0822 60.9008 16.1323 61.4248 17.0157 62.4957C18.0507 63.7506 17.1339 65.2632 17.5457 66.2369C17.6239 66.4462 17.6586 66.6213 17.7057 66.7991C17.7528 66.9769 17.8112 67.152 17.9429 67.7619" stroke="#D98676" stroke-linecap="round"/>
<path d="M26.772 28.2266C26.1055 29.2187 25.762 29.9661 25.8603 30.504C26.151 32.094 27.3225 32.9382 27.5162 33.3962C27.6079 33.613 27.5821 33.8347 27.4063 34.0033C27.2305 34.1719 26.8789 34.29 26.6098 34.3682C26.3408 34.4465 26.165 34.4812 25.9832 34.9465" stroke="#D98676" stroke-linecap="round"/>
<path d="M71.6795 17.3555C71.9157 18.0427 72.6316 19.5216 72.7056 20.4776C72.1042 21.5295 71.9113 22.0543 71.7439 22.3878C71.6243 22.5324 71.4342 22.6269 70.877 22.7959" stroke="#D98676" stroke-linecap="round"/>
<path d="M60.3839 13.4805C60.1458 13.93 59.3763 14.9809 58.4582 15.8145C57.8264 16.3882 57.3967 16.8866 57.2882 17.3481C57.1456 17.9554 57.3681 18.7055 57.4452 19.3603C57.4055 19.6411 57.2059 19.8176 56.9676 19.9495C56.7294 20.0814 56.4587 20.1634 56.1074 20.3195" stroke="#D98676" stroke-linecap="round"/>
<path d="M37.956 83.3086C38.0114 83.6049 38.3451 84.3484 39.1595 85.3635C39.5015 85.7898 39.8986 85.9331 40.0291 86.1374C40.3406 86.6249 38.8252 87.2993 38.17 88.0892C37.9067 88.4066 38.0396 89.4094 38.1344 90.4087C38.1736 90.8216 37.8546 91.1355 37.7617 91.3978C37.7605 91.5418 37.8526 91.7078 37.9369 91.8579C38.0212 92.008 38.095 92.1372 38.171 92.4938" stroke="#D98676" stroke-linecap="round"/>
<path d="M11.2931 71.2148C11.2189 71.2886 10.2688 71.8661 8.86846 72.7664C7.29497 73.778 9.19402 77.1216 9.13443 77.4237C8.88203 77.6606 8.45741 77.846 8.0215 78.0155C7.83039 78.1035 7.70037 78.1958 7.56641 78.2908" stroke="#D98676" stroke-linecap="round"/>
<path d="M95.1094 75.5641C97.1199 75.5003 101.179 75.394 101.461 75.771C102.626 77.3306 104.227 78.4259 104.864 78.5837C105.049 78.2713 105.509 77.6124 106.197 76.9098C106.491 76.6288 106.672 76.5013 106.914 76.3135" stroke="#D98676" stroke-linecap="round"/>
</svg>
