<svg width="16" height="14" viewBox="0 0 16 14" fill="none" xmlns="http://www.w3.org/2000/svg">
<path d="M0 3.7048V12.6803C0 13.1504 0.379844 13.5303 0.85 13.5303C1.32016 13.5303 1.7 13.1504 1.7 12.6803V6.30527C1.7 5.83512 2.07984 5.45527 2.55 5.45527H12.75C13.2202 5.45527 13.6 5.83512 13.6 6.30527V12.6803C13.6 13.1504 13.9798 13.5303 14.45 13.5303C14.9202 13.5303 15.3 13.1504 15.3 12.6803V3.7048C15.3 2.97434 14.8325 2.32355 14.1366 2.09246L8.05375 0.0657422C7.79078 -0.0219141 7.50922 -0.0219141 7.24625 0.0657422L1.16344 2.09246C0.4675 2.32355 0 2.97434 0 3.7048ZM12.325 6.73027H2.975V8.43027H12.325V6.73027ZM2.975 10.9803H12.325V9.28027H2.975V10.9803ZM12.325 11.8303H2.975V13.5303H12.325V11.8303Z" fill="#E9E2D5"/>
</svg>
