<svg width="15" height="14" viewBox="0 0 15 14" fill="none" xmlns="http://www.w3.org/2000/svg">
<path d="M2.63737 0C2.28513 0 1.94732 0.139927 1.69825 0.388999L0.777998 1.30925C-0.259333 2.34658 -0.259333 4.02842 0.777998 5.06575C1.72515 6.0129 3.20963 6.09524 4.2502 5.31277C4.6939 5.64586 5.24591 5.84375 5.84375 5.84375C6.44169 5.84375 6.99376 5.6458 7.4375 5.31261C7.88124 5.6458 8.43331 5.84375 9.03125 5.84375C9.6291 5.84375 10.1811 5.64586 10.6248 5.31277C11.6654 6.09524 13.1498 6.01291 14.097 5.06575C15.1343 4.02842 15.1343 2.34658 14.097 1.30925L13.1768 0.389002C12.9277 0.13993 12.5899 3.1665e-06 12.2376 3.03984e-06L2.63737 0Z" fill="#E9E2D5"/>
<path fill-rule="evenodd" clip-rule="evenodd" d="M1.0625 12.75V6.54862C2.06848 7.02564 3.24409 7.02531 4.25031 6.54809C4.73354 6.77751 5.27433 6.90625 5.84375 6.90625C6.41329 6.90625 6.95419 6.77746 7.4375 6.54795C7.92081 6.77746 8.46171 6.90625 9.03125 6.90625C9.60067 6.90625 10.1415 6.77751 10.6247 6.54809C11.6309 7.02531 12.8065 7.02564 13.8125 6.54862V12.75H14.3438C14.6372 12.75 14.875 12.9879 14.875 13.2813C14.875 13.5747 14.6372 13.8125 14.3438 13.8125H0.53125C0.237848 13.8125 0 13.5747 0 13.2813C0 12.9879 0.237849 12.75 0.53125 12.75H1.0625ZM3.1875 8.5C3.1875 8.2066 3.42535 7.96875 3.71875 7.96875H5.84375C6.13715 7.96875 6.375 8.2066 6.375 8.5V10.625C6.375 10.9184 6.13715 11.1562 5.84375 11.1562H3.71875C3.42535 11.1562 3.1875 10.9184 3.1875 10.625V8.5ZM9.03125 7.96875C8.73785 7.96875 8.5 8.2066 8.5 8.5V12.2188C8.5 12.5122 8.73785 12.75 9.03125 12.75H11.1562C11.4497 12.75 11.6875 12.5122 11.6875 12.2188V8.5C11.6875 8.2066 11.4497 7.96875 11.1562 7.96875H9.03125Z" fill="#E9E2D5"/>
</svg>
