<svg width="17" height="14" viewBox="0 0 17 14" fill="none" xmlns="http://www.w3.org/2000/svg">
<path d="M1.8 0C0.807187 0 0 0.807187 0 1.8V9.9C0 10.8928 0.807187 11.7 1.8 11.7H1.89281C2.18531 12.7378 3.14156 13.5 4.275 13.5C5.40844 13.5 6.36187 12.7378 6.65719 11.7H9.54281C9.83531 12.7378 10.7916 13.5 11.925 13.5C13.0584 13.5 14.0119 12.7378 14.3072 11.7H14.4C15.3928 11.7 16.2 10.8928 16.2 9.9V5.77406C16.2 5.29594 16.0116 4.8375 15.6741 4.5L14.4 3.22594C14.0625 2.88844 13.6041 2.7 13.1259 2.7H11.7V1.8C11.7 0.807187 10.8928 0 9.9 0H1.8ZM14.4 5.77406V7.2H11.7V4.5H13.1259L14.4 5.77406ZM4.275 9.9C4.89656 9.9 5.4 10.4034 5.4 11.025C5.4 11.6466 4.89656 12.15 4.275 12.15C3.65344 12.15 3.15 11.6466 3.15 11.025C3.15 10.4034 3.65344 9.9 4.275 9.9ZM10.8 11.025C10.8 10.4034 11.3034 9.9 11.925 9.9C12.5466 9.9 13.05 10.4034 13.05 11.025C13.05 11.6466 12.5466 12.15 11.925 12.15C11.3034 12.15 10.8 11.6466 10.8 11.025ZM8.57812 5.42812L6.55312 7.45312C6.28875 7.7175 5.86125 7.7175 5.59969 7.45312C5.33812 7.18875 5.33531 6.76125 5.59969 6.49969L6.47156 5.62781H3.6C3.22594 5.62781 2.925 5.32688 2.925 4.95281C2.925 4.57875 3.22594 4.27781 3.6 4.27781H6.47156L5.59969 3.40594C5.33531 3.14156 5.33531 2.71406 5.59969 2.4525C5.86406 2.19094 6.29156 2.18812 6.55312 2.4525L8.57812 4.4775C8.8425 4.74187 8.8425 5.16937 8.57812 5.43094V5.42812Z" fill="#E9E2D5"/>
</svg>
