<svg width="14" height="14" viewBox="0 0 14 14" fill="none" xmlns="http://www.w3.org/2000/svg">
<path d="M4.25327 0.664385C4.04342 0.162354 3.49624 -0.103271 2.97561 0.0375106L2.82952 0.0773544C1.11358 0.544854 -0.352671 2.20767 0.0749853 4.23173C1.06045 8.88017 4.71811 12.5378 9.36655 13.5233C11.3933 13.9536 13.0534 12.4847 13.5209 10.7688L13.5608 10.6227C13.7042 10.0994 13.4359 9.5522 12.9365 9.34501L10.352 8.26923C9.91374 8.08595 9.40639 8.21345 9.10358 8.58267L8.07827 9.83642C6.21092 8.90938 4.70749 7.35813 3.8442 5.4536L5.01827 4.49735C5.38749 4.1972 5.51233 3.68985 5.3317 3.24892L4.25327 0.664385Z" fill="#944131"/>
</svg>
