<svg width="54" height="54" viewBox="0 0 54 54" fill="none" xmlns="http://www.w3.org/2000/svg">
<circle cx="27" cy="27" r="27" fill="#E9E2D5"/>
<path d="M18.5292 14.8125C17.9076 14.8125 17.3114 15.0594 16.8719 15.499L15.2479 17.1229C13.4174 18.9535 13.4174 21.9215 15.2479 23.7521C16.9194 25.4235 19.5391 25.5688 21.3754 24.188C22.1584 24.7758 23.1325 25.125 24.1875 25.125C25.2427 25.125 26.2169 24.7757 27 24.1877C27.7831 24.7757 28.7573 25.125 29.8125 25.125C30.8675 25.125 31.8416 24.7758 32.6246 24.188C34.461 25.5688 37.0806 25.4235 38.7521 23.7521C40.5826 21.9215 40.5826 18.9535 38.7521 17.1229L37.1281 15.499C36.6886 15.0594 36.0924 14.8125 35.4708 14.8125L18.5292 14.8125Z" fill="#944131"/>
<path fill-rule="evenodd" clip-rule="evenodd" d="M15.75 37.3125V26.3689C17.5253 27.2107 19.5999 27.2101 21.3755 26.368C22.2283 26.7728 23.1826 27 24.1875 27C25.1926 27 26.1471 26.7727 27 26.3677C27.8529 26.7727 28.8074 27 29.8125 27C30.8174 27 31.7717 26.7728 32.6245 26.368C34.4001 27.2101 36.4747 27.2107 38.25 26.3689V37.3125H39.1875C39.7053 37.3125 40.125 37.7322 40.125 38.25C40.125 38.7678 39.7053 39.1875 39.1875 39.1875H14.8125C14.2947 39.1875 13.875 38.7678 13.875 38.25C13.875 37.7322 14.2947 37.3125 14.8125 37.3125H15.75ZM19.5 29.8125C19.5 29.2947 19.9197 28.875 20.4375 28.875H24.1875C24.7053 28.875 25.125 29.2947 25.125 29.8125V33.5625C25.125 34.0803 24.7053 34.5 24.1875 34.5H20.4375C19.9197 34.5 19.5 34.0803 19.5 33.5625V29.8125ZM29.8125 28.875C29.2947 28.875 28.875 29.2947 28.875 29.8125V36.375C28.875 36.8928 29.2947 37.3125 29.8125 37.3125H33.5625C34.0803 37.3125 34.5 36.8928 34.5 36.375V29.8125C34.5 29.2947 34.0803 28.875 33.5625 28.875H29.8125Z" fill="#944131"/>
</svg>
