<svg width="52" height="52" viewBox="0 0 52 52" fill="none" xmlns="http://www.w3.org/2000/svg">
<path fill-rule="evenodd" clip-rule="evenodd" d="M26 52C40.3594 52 52 40.3594 52 26C52 11.6406 40.3594 -1.01765e-06 26 -2.27299e-06C11.6406 -3.52833e-06 3.52833e-06 11.6406 2.27299e-06 26C1.01765e-06 40.3594 11.6406 52 26 52ZM14.5858 24.5858C14.2107 24.9609 14 25.4696 14 26C14 26.5304 14.2107 27.0391 14.5858 27.4142L22.5858 35.4142C23.3668 36.1953 24.6332 36.1953 25.4142 35.4142C26.1953 34.6332 26.1953 33.3668 25.4142 32.5858L20.8284 28L36 28C37.1046 28 38 27.1046 38 26C38 24.8954 37.1046 24 36 24L20.8284 24L25.4142 19.4142C26.1953 18.6332 26.1953 17.3668 25.4142 16.5858C24.6332 15.8047 23.3668 15.8047 22.5858 16.5858L14.5858 24.5858Z" fill="#E9E2D5"/>
</svg>
