<svg width="52" height="52" viewBox="0 0 52 52" fill="none" xmlns="http://www.w3.org/2000/svg">
<path fill-rule="evenodd" clip-rule="evenodd" d="M26 0C11.6406 0 0 11.6406 0 26C0 40.3594 11.6406 52 26 52C40.3594 52 52 40.3594 52 26C52 11.6406 40.3594 0 26 0ZM37.4142 27.4142C37.7893 27.0391 38 26.5304 38 26C38 25.4696 37.7893 24.9609 37.4142 24.5858L29.4142 16.5858C28.6332 15.8047 27.3668 15.8047 26.5858 16.5858C25.8047 17.3668 25.8047 18.6332 26.5858 19.4142L31.1716 24L16 24C14.8954 24 14 24.8954 14 26C14 27.1046 14.8954 28 16 28L31.1716 28L26.5858 32.5858C25.8047 33.3668 25.8047 34.6332 26.5858 35.4142C27.3668 36.1953 28.6332 36.1953 29.4142 35.4142L37.4142 27.4142Z" fill="#E9E2D5"/>
</svg>
