<svg width="28" height="25" viewBox="0 0 28 25" fill="none" xmlns="http://www.w3.org/2000/svg">
<path d="M13.6069 1.25C14.1724 1.25 14.6275 1.66797 14.6275 2.1875V4.64453C15.2398 4.08984 16.0818 3.75 17.0088 3.75H18.3696C18.7438 3.75 19.05 4.03125 19.05 4.375C19.05 5.61328 18.2675 6.67969 17.1321 7.1875C18.2675 7.69531 19.05 8.76172 19.05 10C19.05 10.3438 18.7438 10.625 18.3696 10.625H16.3284C15.2143 10.625 14.2277 10.1328 13.6069 9.375C12.986 10.1328 11.9995 10.625 10.8853 10.625H8.84418C8.46996 10.625 8.16379 10.3438 8.16379 10C8.16379 8.76172 8.94623 7.69531 10.0816 7.1875C8.94623 6.67969 8.16379 5.61328 8.16379 4.375C8.16379 4.03125 8.46996 3.75 8.84418 3.75H10.2049C11.132 3.75 11.974 4.08984 12.5863 4.64453V2.1875C12.5863 1.66797 13.0413 1.25 13.6069 1.25ZM6.12263 10C6.12263 11.3789 7.34307 12.5 8.84418 12.5H10.8853C11.8761 12.5 12.8074 12.2539 13.6069 11.832C14.4063 12.2578 15.3376 12.5 16.3284 12.5H18.3696C19.8707 12.5 21.0911 11.3789 21.0911 10C21.0911 9.26953 20.921 8.57812 20.6148 7.95312C22.9877 9.33984 24.493 11.5352 24.493 14.375C24.493 19.4883 19.6198 22.5 13.6069 22.5C7.59397 22.5 2.7207 19.4883 2.7207 14.375C2.7207 11.5312 4.22606 9.33984 6.5989 7.95312C6.29273 8.57812 6.12263 9.26953 6.12263 10Z" fill="#E9E2D5"/>
</svg>
