<svg width="54" height="54" viewBox="0 0 54 54" fill="none" xmlns="http://www.w3.org/2000/svg">
<circle cx="27" cy="27" r="27" fill="#E9E2D5"/>
<path d="M13.5 21.659V37.498C13.5 38.3277 14.1703 38.998 15 38.998C15.8297 38.998 16.5 38.3277 16.5 37.498V26.248C16.5 25.4184 17.1703 24.748 18 24.748H36C36.8297 24.748 37.5 25.4184 37.5 26.248V37.498C37.5 38.3277 38.1703 38.998 39 38.998C39.8297 38.998 40.5 38.3277 40.5 37.498V21.659C40.5 20.3699 39.675 19.2215 38.4469 18.8137L27.7125 15.2371C27.2484 15.0824 26.7516 15.0824 26.2875 15.2371L15.5531 18.8137C14.325 19.2215 13.5 20.3699 13.5 21.659ZM35.25 26.998H18.75V29.998H35.25V26.998ZM18.75 34.498H35.25V31.498H18.75V34.498ZM35.25 35.998H18.75V38.998H35.25V35.998Z" fill="#944131"/>
</svg>
